<?xml version="1.0" standalone="no"?>
<!DOCTYPE svg PUBLIC "-//W3C//DTD SVG 20010904//EN"
 "http://www.w3.org/TR/2001/REC-SVG-20010904/DTD/svg10.dtd">
<svg version="1.0" xmlns="http://www.w3.org/2000/svg"
width="140.000000pt" height="139.000000pt" viewBox="0 0 140.000000 139.000000"
preserveAspectRatio="xMidYMid meet">
    <metadata>WeberStudio.CO 2021</metadata>
    <g id="wl150-logo" transform="translate(0.000000,139.000000) scale(0.100000,-0.100000)" fill="#000000" stroke="none">
        <path d="M96 1164 c-20 -42 -50 -93 -66 -114 -19 -24 -30 -50 -30 -69 0 -57 61 -225 131 -359 83 -160 137 -241 199 -302 105 -101 316 -198 454 -208 l68 -5 70 73 c90 94 203 245 249 335 20 39 69 151 109 250 40 99 83 201 96 227 27 53 31 88 10 88 -20 0 -95 65 -129 111 -16 21 -32 39 -36 39 -4 0 -17 -56 -30 -124 -49 -272 -90 -437 -134 -545 -43 -105 -127 -248 -152 -257 -30 -12 -194 69 -298 147 -4 3 25 55 66 115 56 84 81 132 106 209 33 100 62 164 100 220 27 39 27 41 -11 49 -25 4 -57 32 -127 104 -90 93 -93 96 -87 62 3 -19 9 -85 12 -147 11 -182 -27 -352 -106 -477 l-37 -58 -47 58 c-47 57 -123 179 -171 275 l-26 50 21 30 c21 28 21 30 3 53 -100 128 -135 177 -148 209 -8 20 -17 37 -19 37 -2 0 -20 -34 -40 -76z"/>
    </g>
</svg>
